<?xml version="1.0" standalone="no"?>
<!DOCTYPE svg PUBLIC "-//W3C//DTD SVG 20010904//EN"
 "http://www.w3.org/TR/2001/REC-SVG-20010904/DTD/svg10.dtd">
<svg version="1.0" xmlns="http://www.w3.org/2000/svg"
 width="310.000000pt" height="310.000000pt" viewBox="0 0 310.000000 310.000000"
 preserveAspectRatio="xMidYMid meet">
<metadata>
Created by potrace 1.14, written by Peter Selinger 2001-2017
</metadata>
<g transform="translate(0.000000,310.000000) scale(0.100000,-0.100000)"
fill="#000000" stroke="none">
<path d="M253 3070 c-59 -34 -90 -72 -109 -137 -21 -69 -21 -2697 0 -2766 19
-65 50 -103 109 -137 l52 -30 560 0 c423 0 564 3 573 12 19 19 14 55 -10 72
-20 14 -91 16 -569 16 -545 0 -546 0 -574 22 -58 45 -55 -15 -55 1273 l0 1185
189 0 189 0 25 30 c17 20 35 30 52 30 17 0 37 -11 55 -30 l28 -30 736 0 736 0
0 -1190 c0 -1299 3 -1222 -56 -1269 -26 -20 -38 -21 -314 -21 -268 0 -289 -1
-311 -19 -20 -16 -22 -23 -14 -47 l10 -29 304 -3 303 -2 50 27 c60 33 95 75
114 139 21 70 21 2698 0 2768 -19 63 -56 108 -112 140 -45 25 -53 26 -209 26
l-163 0 -15 -32 c-18 -38 -8 -65 26 -73 12 -2 87 -6 165 -7 l144 -3 29 -33
c27 -30 29 -38 29 -117 l0 -85 -985 0 -985 0 0 85 c0 79 2 87 29 117 l29 33
707 5 c673 5 707 6 720 24 12 15 11 23 -3 52 l-16 34 -705 0 -706 0 -52 -30z"/>
<path d="M2538 3070 c-23 -19 -41 -45 -48 -68 -6 -24 -10 -466 -10 -1304 l0
-1267 108 -213 c145 -287 129 -287 275 0 l107 213 0 1267 c0 838 -4 1280 -10
1304 -7 23 -25 49 -48 68 l-37 30 -150 0 -150 0 -37 -30z m310 -167 l3 -83
-131 0 -130 0 0 79 c0 54 4 81 13 85 6 2 64 4 127 3 l115 -2 3 -82z m20 -1445
l2 -968 -22 -5 c-13 -3 -77 -4 -143 -3 l-120 3 -3 960 c-1 528 0 966 3 973 3
9 38 12 142 10 l138 -3 3 -967z m-38 -1083 c0 -3 -16 -37 -35 -75 -33 -66 -37
-70 -70 -70 -33 0 -37 4 -70 70 -19 38 -35 72 -35 75 0 3 47 5 105 5 58 0 105
-2 105 -5z"/>
<path d="M551 2282 c-64 -32 -76 -60 -79 -185 -3 -131 10 -167 74 -204 33 -19
54 -23 139 -23 85 0 106 4 139 23 59 33 76 74 76 182 0 65 4 97 15 111 32 42
12 84 -40 84 -16 1 -41 7 -55 15 -38 22 -225 20 -269 -3z m223 -90 c3 -5 -10
-24 -30 -43 -29 -28 -37 -32 -52 -21 -42 30 -62 35 -87 24 -16 -7 -25 -20 -25
-34 0 -31 93 -128 122 -128 12 0 39 17 60 37 l38 37 0 -31 c0 -52 -20 -63
-115 -63 -110 0 -115 5 -115 119 0 54 4 91 12 99 14 14 184 17 192 4z"/>
<path d="M1068 2105 c-9 -21 -8 -28 7 -45 18 -19 31 -20 456 -20 384 0 439 2
453 16 19 18 20 28 6 55 -10 18 -26 19 -461 19 l-449 0 -12 -25z"/>
<path d="M575 1783 c-36 -10 -72 -42 -90 -79 -25 -54 -18 -241 11 -281 36 -49
78 -63 189 -63 111 0 153 14 189 63 29 40 36 227 11 281 -31 65 -65 81 -185
83 -58 1 -114 -1 -125 -4z m206 -103 c17 -9 19 -22 19 -100 0 -115 -4 -120
-115 -120 -111 0 -115 5 -115 120 0 74 3 91 18 99 22 14 168 14 193 1z"/>
<path d="M1075 1600 c-15 -17 -16 -24 -7 -45 l12 -25 449 0 c435 0 451 1 461
19 14 27 13 37 -6 55 -14 14 -69 16 -453 16 -425 0 -438 -1 -456 -20z"/>
<path d="M579 1271 c-83 -27 -109 -78 -109 -214 0 -107 16 -149 69 -184 30
-21 46 -23 146 -23 100 0 116 2 146 23 58 39 71 76 67 202 -4 122 -12 143 -68
178 -28 17 -52 22 -130 24 -52 1 -107 -1 -121 -6z m205 -107 c20 -19 23 -183
4 -202 -16 -16 -190 -16 -206 0 -19 19 -16 183 4 202 22 23 176 23 198 0z"/>
<path d="M1076 1088 c-20 -29 -20 -34 4 -58 19 -19 33 -20 450 -20 417 0 431
1 450 20 25 25 25 42 2 63 -17 15 -63 17 -455 17 l-436 0 -15 -22z"/>
<path d="M539 737 c-54 -35 -69 -77 -69 -186 0 -109 20 -165 69 -194 44 -26
254 -25 294 2 52 34 61 58 65 168 5 120 -6 160 -54 203 -34 30 -35 30 -153 30
-106 0 -121 -2 -152 -23z m249 -89 c13 -13 17 -163 6 -192 -5 -13 -24 -16
-103 -16 -62 0 -101 4 -109 12 -16 16 -16 180 0 196 8 8 46 12 103 12 57 0 95
-4 103 -12z"/>
<path d="M1080 580 c-24 -24 -24 -29 -4 -58 l15 -22 438 0 c412 0 439 1 454
18 22 24 21 38 -3 62 -19 19 -33 20 -450 20 -417 0 -431 -1 -450 -20z"/>
</g>
</svg>
